# Created by Open3D 
# object name: ground
# number of vertices: 256
# number of triangles: 450
v -1 0 -1 0.8 0.8 0.8
vn 0 -1 0
v -1 0 -0.866667 0.8 0.8 0.8
vn 0 -1 0
v -1 0 -0.733333 0.8 0.8 0.8
vn 0 -1 0
v -1 0 -0.6 0.8 0.8 0.8
vn 0 -1 0
v -1 0 -0.466667 0.8 0.8 0.8
vn 0 -1 0
v -1 0 -0.333333 0.8 0.8 0.8
vn 0 -1 0
v -1 0 -0.2 0.8 0.8 0.8
vn 0 -1 0
v -1 0 -0.0666667 0.8 0.8 0.8
vn 0 -1 0
v -1 0 0.0666667 0.8 0.8 0.8
vn 0 -1 0
v -1 0 0.2 0.8 0.8 0.8
vn 0 -1 0
v -1 0 0.333333 0.8 0.8 0.8
vn 0 -1 0
v -1 0 0.466667 0.8 0.8 0.8
vn 0 -1 0
v -1 0 0.6 0.8 0.8 0.8
vn 0 -1 0
v -1 0 0.733333 0.8 0.8 0.8
vn 0 -1 0
v -1 0 0.866667 0.8 0.8 0.8
vn 0 -1 0
v -1 0 1 0.8 0.8 0.8
vn 0 -1 0
v -0.866667 0 -1 0.8 0.8 0.8
vn 0 -1 0
v -0.866667 0 -0.866667 0.8 0.8 0.8
vn 0 -1 0
v -0.866667 0 -0.733333 0.8 0.8 0.8
vn 0 -1 0
v -0.866667 0 -0.6 0.8 0.8 0.8
vn 0 -1 0
v -0.866667 0 -0.466667 0.8 0.8 0.8
vn 0 -1 0
v -0.866667 0 -0.333333 0.8 0.8 0.8
vn 0 -1 0
v -0.866667 0 -0.2 0.8 0.8 0.8
vn 0 -1 0
v -0.866667 0 -0.0666667 0.8 0.8 0.8
vn 0 -1 0
v -0.866667 0 0.0666667 0.8 0.8 0.8
vn 0 -1 0
v -0.866667 0 0.2 0.8 0.8 0.8
vn 0 -1 0
v -0.866667 0 0.333333 0.8 0.8 0.8
vn 0 -1 0
v -0.866667 0 0.466667 0.8 0.8 0.8
vn 0 -1 0
v -0.866667 0 0.6 0.8 0.8 0.8
vn 0 -1 0
v -0.866667 0 0.733333 0.8 0.8 0.8
vn 0 -1 0
v -0.866667 0 0.866667 0.8 0.8 0.8
vn 0 -1 0
v -0.866667 0 1 0.8 0.8 0.8
vn 0 -1 0
v -0.733333 0 -1 0.8 0.8 0.8
vn 0 -1 0
v -0.733333 0 -0.866667 0.8 0.8 0.8
vn 0 -1 0
v -0.733333 0 -0.733333 0.8 0.8 0.8
vn 0 -1 0
v -0.733333 0 -0.6 0.8 0.8 0.8
vn 0 -1 0
v -0.733333 0 -0.466667 0.8 0.8 0.8
vn 0 -1 0
v -0.733333 0 -0.333333 0.8 0.8 0.8
vn 0 -1 0
v -0.733333 0 -0.2 0.8 0.8 0.8
vn 0 -1 0
v -0.733333 0 -0.0666667 0.8 0.8 0.8
vn 0 -1 0
v -0.733333 0 0.0666667 0.8 0.8 0.8
vn 0 -1 0
v -0.733333 0 0.2 0.8 0.8 0.8
vn 0 -1 0
v -0.733333 0 0.333333 0.8 0.8 0.8
vn 0 -1 0
v -0.733333 0 0.466667 0.8 0.8 0.8
vn 0 -1 0
v -0.733333 0 0.6 0.8 0.8 0.8
vn 0 -1 0
v -0.733333 0 0.733333 0.8 0.8 0.8
vn 0 -1 0
v -0.733333 0 0.866667 0.8 0.8 0.8
vn 0 -1 0
v -0.733333 0 1 0.8 0.8 0.8
vn 0 -1 0
v -0.6 0 -1 0.8 0.8 0.8
vn 0 -1 0
v -0.6 0 -0.866667 0.8 0.8 0.8
vn 0 -1 0
v -0.6 0 -0.733333 0.8 0.8 0.8
vn 0 -1 0
v -0.6 0 -0.6 0.8 0.8 0.8
vn 0 -1 0
v -0.6 0 -0.466667 0.8 0.8 0.8
vn 0 -1 0
v -0.6 0 -0.333333 0.8 0.8 0.8
vn 0 -1 0
v -0.6 0 -0.2 0.8 0.8 0.8
vn 0 -1 0
v -0.6 0 -0.0666667 0.8 0.8 0.8
vn 0 -1 0
v -0.6 0 0.0666667 0.8 0.8 0.8
vn 0 -1 0
v -0.6 0 0.2 0.8 0.8 0.8
vn 0 -1 0
v -0.6 0 0.333333 0.8 0.8 0.8
vn 0 -1 0
v -0.6 0 0.466667 0.8 0.8 0.8
vn 0 -1 0
v -0.6 0 0.6 0.8 0.8 0.8
vn 0 -1 0
v -0.6 0 0.733333 0.8 0.8 0.8
vn 0 -1 0
v -0.6 0 0.866667 0.8 0.8 0.8
vn 0 -1 0
v -0.6 0 1 0.8 0.8 0.8
vn 0 -1 0
v -0.466667 0 -1 0.8 0.8 0.8
vn 0 -1 0
v -0.466667 0 -0.866667 0.8 0.8 0.8
vn 0 -1 0
v -0.466667 0 -0.733333 0.8 0.8 0.8
vn 0 -1 0
v -0.466667 0 -0.6 0.8 0.8 0.8
vn 0 -1 0
v -0.466667 0 -0.466667 0.8 0.8 0.8
vn 0 -1 0
v -0.466667 0 -0.333333 0.8 0.8 0.8
vn 0 -1 0
v -0.466667 0 -0.2 0.8 0.8 0.8
vn 0 -1 0
v -0.466667 0 -0.0666667 0.8 0.8 0.8
vn 0 -1 0
v -0.466667 0 0.0666667 0.8 0.8 0.8
vn 0 -1 0
v -0.466667 0 0.2 0.8 0.8 0.8
vn 0 -1 0
v -0.466667 0 0.333333 0.8 0.8 0.8
vn 0 -1 0
v -0.466667 0 0.466667 0.8 0.8 0.8
vn 0 -1 0
v -0.466667 0 0.6 0.8 0.8 0.8
vn 0 -1 0
v -0.466667 0 0.733333 0.8 0.8 0.8
vn 0 -1 0
v -0.466667 0 0.866667 0.8 0.8 0.8
vn 0 -1 0
v -0.466667 0 1 0.8 0.8 0.8
vn 0 -1 0
v -0.333333 0 -1 0.8 0.8 0.8
vn 0 -1 0
v -0.333333 0 -0.866667 0.8 0.8 0.8
vn 0 -1 0
v -0.333333 0 -0.733333 0.8 0.8 0.8
vn 0 -1 0
v -0.333333 0 -0.6 0.8 0.8 0.8
vn 0 -1 0
v -0.333333 0 -0.466667 0.8 0.8 0.8
vn 0 -1 0
v -0.333333 0 -0.333333 0.8 0.8 0.8
vn 0 -1 0
v -0.333333 0 -0.2 0.8 0.8 0.8
vn 0 -1 0
v -0.333333 0 -0.0666667 0.8 0.8 0.8
vn 0 -1 0
v -0.333333 0 0.0666667 0.8 0.8 0.8
vn 0 -1 0
v -0.333333 0 0.2 0.8 0.8 0.8
vn 0 -1 0
v -0.333333 0 0.333333 0.8 0.8 0.8
vn 0 -1 0
v -0.333333 0 0.466667 0.8 0.8 0.8
vn 0 -1 0
v -0.333333 0 0.6 0.8 0.8 0.8
vn 0 -1 0
v -0.333333 0 0.733333 0.8 0.8 0.8
vn 0 -1 0
v -0.333333 0 0.866667 0.8 0.8 0.8
vn 0 -1 0
v -0.333333 0 1 0.8 0.8 0.8
vn 0 -1 0
v -0.2 0 -1 0.8 0.8 0.8
vn 0 -1 0
v -0.2 0 -0.866667 0.8 0.8 0.8
vn 0 -1 0
v -0.2 0 -0.733333 0.8 0.8 0.8
vn 0 -1 0
v -0.2 0 -0.6 0.8 0.8 0.8
vn 0 -1 0
v -0.2 0 -0.466667 0.8 0.8 0.8
vn 0 -1 0
v -0.2 0 -0.333333 0.8 0.8 0.8
vn 0 -1 0
v -0.2 0 -0.2 0.8 0.8 0.8
vn 0 -1 0
v -0.2 0 -0.0666667 0.8 0.8 0.8
vn 0 -1 0
v -0.2 0 0.0666667 0.8 0.8 0.8
vn 0 -1 0
v -0.2 0 0.2 0.8 0.8 0.8
vn 0 -1 0
v -0.2 0 0.333333 0.8 0.8 0.8
vn 0 -1 0
v -0.2 0 0.466667 0.8 0.8 0.8
vn 0 -1 0
v -0.2 0 0.6 0.8 0.8 0.8
vn 0 -1 0
v -0.2 0 0.733333 0.8 0.8 0.8
vn 0 -1 0
v -0.2 0 0.866667 0.8 0.8 0.8
vn 0 -1 0
v -0.2 0 1 0.8 0.8 0.8
vn 0 -1 0
v -0.0666667 0 -1 0.8 0.8 0.8
vn 0 -1 0
v -0.0666667 0 -0.866667 0.8 0.8 0.8
vn 0 -1 0
v -0.0666667 0 -0.733333 0.8 0.8 0.8
vn 0 -1 0
v -0.0666667 0 -0.6 0.8 0.8 0.8
vn 0 -1 0
v -0.0666667 0 -0.466667 0.8 0.8 0.8
vn 0 -1 0
v -0.0666667 0 -0.333333 0.8 0.8 0.8
vn 0 -1 0
v -0.0666667 0 -0.2 0.8 0.8 0.8
vn 0 -1 0
v -0.0666667 0 -0.0666667 0.8 0.8 0.8
vn 0 -1 0
v -0.0666667 0 0.0666667 0.8 0.8 0.8
vn 0 -1 0
v -0.0666667 0 0.2 0.8 0.8 0.8
vn 0 -1 0
v -0.0666667 0 0.333333 0.8 0.8 0.8
vn 0 -1 0
v -0.0666667 0 0.466667 0.8 0.8 0.8
vn 0 -1 0
v -0.0666667 0 0.6 0.8 0.8 0.8
vn 0 -1 0
v -0.0666667 0 0.733333 0.8 0.8 0.8
vn 0 -1 0
v -0.0666667 0 0.866667 0.8 0.8 0.8
vn 0 -1 0
v -0.0666667 0 1 0.8 0.8 0.8
vn 0 -1 0
v 0.0666667 0 -1 0.8 0.8 0.8
vn 0 -1 0
v 0.0666667 0 -0.866667 0.8 0.8 0.8
vn 0 -1 0
v 0.0666667 0 -0.733333 0.8 0.8 0.8
vn 0 -1 0
v 0.0666667 0 -0.6 0.8 0.8 0.8
vn 0 -1 0
v 0.0666667 0 -0.466667 0.8 0.8 0.8
vn 0 -1 0
v 0.0666667 0 -0.333333 0.8 0.8 0.8
vn 0 -1 0
v 0.0666667 0 -0.2 0.8 0.8 0.8
vn 0 -1 0
v 0.0666667 0 -0.0666667 0.8 0.8 0.8
vn 0 -1 0
v 0.0666667 0 0.0666667 0.8 0.8 0.8
vn 0 -1 0
v 0.0666667 0 0.2 0.8 0.8 0.8
vn 0 -1 0
v 0.0666667 0 0.333333 0.8 0.8 0.8
vn 0 -1 0
v 0.0666667 0 0.466667 0.8 0.8 0.8
vn 0 -1 0
v 0.0666667 0 0.6 0.8 0.8 0.8
vn 0 -1 0
v 0.0666667 0 0.733333 0.8 0.8 0.8
vn 0 -1 0
v 0.0666667 0 0.866667 0.8 0.8 0.8
vn 0 -1 0
v 0.0666667 0 1 0.8 0.8 0.8
vn 0 -1 0
v 0.2 0 -1 0.8 0.8 0.8
vn 0 -1 0
v 0.2 0 -0.866667 0.8 0.8 0.8
vn 0 -1 0
v 0.2 0 -0.733333 0.8 0.8 0.8
vn 0 -1 0
v 0.2 0 -0.6 0.8 0.8 0.8
vn 0 -1 0
v 0.2 0 -0.466667 0.8 0.8 0.8
vn 0 -1 0
v 0.2 0 -0.333333 0.8 0.8 0.8
vn 0 -1 0
v 0.2 0 -0.2 0.8 0.8 0.8
vn 0 -1 0
v 0.2 0 -0.0666667 0.8 0.8 0.8
vn 0 -1 0
v 0.2 0 0.0666667 0.8 0.8 0.8
vn 0 -1 0
v 0.2 0 0.2 0.8 0.8 0.8
vn 0 -1 0
v 0.2 0 0.333333 0.8 0.8 0.8
vn 0 -1 0
v 0.2 0 0.466667 0.8 0.8 0.8
vn 0 -1 0
v 0.2 0 0.6 0.8 0.8 0.8
vn 0 -1 0
v 0.2 0 0.733333 0.8 0.8 0.8
vn 0 -1 0
v 0.2 0 0.866667 0.8 0.8 0.8
vn 0 -1 0
v 0.2 0 1 0.8 0.8 0.8
vn 0 -1 0
v 0.333333 0 -1 0.8 0.8 0.8
vn 0 -1 0
v 0.333333 0 -0.866667 0.8 0.8 0.8
vn 0 -1 0
v 0.333333 0 -0.733333 0.8 0.8 0.8
vn 0 -1 0
v 0.333333 0 -0.6 0.8 0.8 0.8
vn 0 -1 0
v 0.333333 0 -0.466667 0.8 0.8 0.8
vn 0 -1 0
v 0.333333 0 -0.333333 0.8 0.8 0.8
vn 0 -1 0
v 0.333333 0 -0.2 0.8 0.8 0.8
vn 0 -1 0
v 0.333333 0 -0.0666667 0.8 0.8 0.8
vn 0 -1 0
v 0.333333 0 0.0666667 0.8 0.8 0.8
vn 0 -1 0
v 0.333333 0 0.2 0.8 0.8 0.8
vn 0 -1 0
v 0.333333 0 0.333333 0.8 0.8 0.8
vn 0 -1 0
v 0.333333 0 0.466667 0.8 0.8 0.8
vn 0 -1 0
v 0.333333 0 0.6 0.8 0.8 0.8
vn 0 -1 0
v 0.333333 0 0.733333 0.8 0.8 0.8
vn 0 -1 0
v 0.333333 0 0.866667 0.8 0.8 0.8
vn 0 -1 0
v 0.333333 0 1 0.8 0.8 0.8
vn 0 -1 0
v 0.466667 0 -1 0.8 0.8 0.8
vn 0 -1 0
v 0.466667 0 -0.866667 0.8 0.8 0.8
vn 0 -1 0
v 0.466667 0 -0.733333 0.8 0.8 0.8
vn 0 -1 0
v 0.466667 0 -0.6 0.8 0.8 0.8
vn 0 -1 0
v 0.466667 0 -0.466667 0.8 0.8 0.8
vn 0 -1 0
v 0.466667 0 -0.333333 0.8 0.8 0.8
vn 0 -1 0
v 0.466667 0 -0.2 0.8 0.8 0.8
vn 0 -1 0
v 0.466667 0 -0.0666667 0.8 0.8 0.8
vn 0 -1 0
v 0.466667 0 0.0666667 0.8 0.8 0.8
vn 0 -1 0
v 0.466667 0 0.2 0.8 0.8 0.8
vn 0 -1 0
v 0.466667 0 0.333333 0.8 0.8 0.8
vn 0 -1 0
v 0.466667 0 0.466667 0.8 0.8 0.8
vn 0 -1 0
v 0.466667 0 0.6 0.8 0.8 0.8
vn 0 -1 0
v 0.466667 0 0.733333 0.8 0.8 0.8
vn 0 -1 0
v 0.466667 0 0.866667 0.8 0.8 0.8
vn 0 -1 0
v 0.466667 0 1 0.8 0.8 0.8
vn 0 -1 0
v 0.6 0 -1 0.8 0.8 0.8
vn 0 -1 0
v 0.6 0 -0.866667 0.8 0.8 0.8
vn 0 -1 0
v 0.6 0 -0.733333 0.8 0.8 0.8
vn 0 -1 0
v 0.6 0 -0.6 0.8 0.8 0.8
vn 0 -1 0
v 0.6 0 -0.466667 0.8 0.8 0.8
vn 0 -1 0
v 0.6 0 -0.333333 0.8 0.8 0.8
vn 0 -1 0
v 0.6 0 -0.2 0.8 0.8 0.8
vn 0 -1 0
v 0.6 0 -0.0666667 0.8 0.8 0.8
vn 0 -1 0
v 0.6 0 0.0666667 0.8 0.8 0.8
vn 0 -1 0
v 0.6 0 0.2 0.8 0.8 0.8
vn 0 -1 0
v 0.6 0 0.333333 0.8 0.8 0.8
vn 0 -1 0
v 0.6 0 0.466667 0.8 0.8 0.8
vn 0 -1 0
v 0.6 0 0.6 0.8 0.8 0.8
vn 0 -1 0
v 0.6 0 0.733333 0.8 0.8 0.8
vn 0 -1 0
v 0.6 0 0.866667 0.8 0.8 0.8
vn 0 -1 0
v 0.6 0 1 0.8 0.8 0.8
vn 0 -1 0
v 0.733333 0 -1 0.8 0.8 0.8
vn 0 -1 0
v 0.733333 0 -0.866667 0.8 0.8 0.8
vn 0 -1 0
v 0.733333 0 -0.733333 0.8 0.8 0.8
vn 0 -1 0
v 0.733333 0 -0.6 0.8 0.8 0.8
vn 0 -1 0
v 0.733333 0 -0.466667 0.8 0.8 0.8
vn 0 -1 0
v 0.733333 0 -0.333333 0.8 0.8 0.8
vn 0 -1 0
v 0.733333 0 -0.2 0.8 0.8 0.8
vn 0 -1 0
v 0.733333 0 -0.0666667 0.8 0.8 0.8
vn 0 -1 0
v 0.733333 0 0.0666667 0.8 0.8 0.8
vn 0 -1 0
v 0.733333 0 0.2 0.8 0.8 0.8
vn 0 -1 0
v 0.733333 0 0.333333 0.8 0.8 0.8
vn 0 -1 0
v 0.733333 0 0.466667 0.8 0.8 0.8
vn 0 -1 0
v 0.733333 0 0.6 0.8 0.8 0.8
vn 0 -1 0
v 0.733333 0 0.733333 0.8 0.8 0.8
vn 0 -1 0
v 0.733333 0 0.866667 0.8 0.8 0.8
vn 0 -1 0
v 0.733333 0 1 0.8 0.8 0.8
vn 0 -1 0
v 0.866667 0 -1 0.8 0.8 0.8
vn 0 -1 0
v 0.866667 0 -0.866667 0.8 0.8 0.8
vn 0 -1 0
v 0.866667 0 -0.733333 0.8 0.8 0.8
vn 0 -1 0
v 0.866667 0 -0.6 0.8 0.8 0.8
vn 0 -1 0
v 0.866667 0 -0.466667 0.8 0.8 0.8
vn 0 -1 0
v 0.866667 0 -0.333333 0.8 0.8 0.8
vn 0 -1 0
v 0.866667 0 -0.2 0.8 0.8 0.8
vn 0 -1 0
v 0.866667 0 -0.0666667 0.8 0.8 0.8
vn 0 -1 0
v 0.866667 0 0.0666667 0.8 0.8 0.8
vn 0 -1 0
v 0.866667 0 0.2 0.8 0.8 0.8
vn 0 -1 0
v 0.866667 0 0.333333 0.8 0.8 0.8
vn 0 -1 0
v 0.866667 0 0.466667 0.8 0.8 0.8
vn 0 -1 0
v 0.866667 0 0.6 0.8 0.8 0.8
vn 0 -1 0
v 0.866667 0 0.733333 0.8 0.8 0.8
vn 0 -1 0
v 0.866667 0 0.866667 0.8 0.8 0.8
vn 0 -1 0
v 0.866667 0 1 0.8 0.8 0.8
vn 0 -1 0
v 1 0 -1 0.8 0.8 0.8
vn 0 -1 0
v 1 0 -0.866667 0.8 0.8 0.8
vn 0 -1 0
v 1 0 -0.733333 0.8 0.8 0.8
vn 0 -1 0
v 1 0 -0.6 0.8 0.8 0.8
vn 0 -1 0
v 1 0 -0.466667 0.8 0.8 0.8
vn 0 -1 0
v 1 0 -0.333333 0.8 0.8 0.8
vn 0 -1 0
v 1 0 -0.2 0.8 0.8 0.8
vn 0 -1 0
v 1 0 -0.0666667 0.8 0.8 0.8
vn 0 -1 0
v 1 0 0.0666667 0.8 0.8 0.8
vn 0 -1 0
v 1 0 0.2 0.8 0.8 0.8
vn 0 -1 0
v 1 0 0.333333 0.8 0.8 0.8
vn 0 -1 0
v 1 0 0.466667 0.8 0.8 0.8
vn 0 -1 0
v 1 0 0.6 0.8 0.8 0.8
vn 0 -1 0
v 1 0 0.733333 0.8 0.8 0.8
vn 0 -1 0
v 1 0 0.866667 0.8 0.8 0.8
vn 0 -1 0
v 1 0 1 0.8 0.8 0.8
vn 0 -1 0
f 1//1 17//17 2//2
f 18//18 2//2 17//17
f 2//2 18//18 3//3
f 19//19 3//3 18//18
f 3//3 19//19 4//4
f 20//20 4//4 19//19
f 4//4 20//20 5//5
f 21//21 5//5 20//20
f 5//5 21//21 6//6
f 22//22 6//6 21//21
f 6//6 22//22 7//7
f 23//23 7//7 22//22
f 7//7 23//23 8//8
f 24//24 8//8 23//23
f 8//8 24//24 9//9
f 25//25 9//9 24//24
f 9//9 25//25 10//10
f 26//26 10//10 25//25
f 10//10 26//26 11//11
f 27//27 11//11 26//26
f 11//11 27//27 12//12
f 28//28 12//12 27//27
f 12//12 28//28 13//13
f 29//29 13//13 28//28
f 13//13 29//29 14//14
f 30//30 14//14 29//29
f 14//14 30//30 15//15
f 31//31 15//15 30//30
f 15//15 31//31 16//16
f 32//32 16//16 31//31
f 17//17 33//33 18//18
f 34//34 18//18 33//33
f 18//18 34//34 19//19
f 35//35 19//19 34//34
f 19//19 35//35 20//20
f 36//36 20//20 35//35
f 20//20 36//36 21//21
f 37//37 21//21 36//36
f 21//21 37//37 22//22
f 38//38 22//22 37//37
f 22//22 38//38 23//23
f 39//39 23//23 38//38
f 23//23 39//39 24//24
f 40//40 24//24 39//39
f 24//24 40//40 25//25
f 41//41 25//25 40//40
f 25//25 41//41 26//26
f 42//42 26//26 41//41
f 26//26 42//42 27//27
f 43//43 27//27 42//42
f 27//27 43//43 28//28
f 44//44 28//28 43//43
f 28//28 44//44 29//29
f 45//45 29//29 44//44
f 29//29 45//45 30//30
f 46//46 30//30 45//45
f 30//30 46//46 31//31
f 47//47 31//31 46//46
f 31//31 47//47 32//32
f 48//48 32//32 47//47
f 33//33 49//49 34//34
f 50//50 34//34 49//49
f 34//34 50//50 35//35
f 51//51 35//35 50//50
f 35//35 51//51 36//36
f 52//52 36//36 51//51
f 36//36 52//52 37//37
f 53//53 37//37 52//52
f 37//37 53//53 38//38
f 54//54 38//38 53//53
f 38//38 54//54 39//39
f 55//55 39//39 54//54
f 39//39 55//55 40//40
f 56//56 40//40 55//55
f 40//40 56//56 41//41
f 57//57 41//41 56//56
f 41//41 57//57 42//42
f 58//58 42//42 57//57
f 42//42 58//58 43//43
f 59//59 43//43 58//58
f 43//43 59//59 44//44
f 60//60 44//44 59//59
f 44//44 60//60 45//45
f 61//61 45//45 60//60
f 45//45 61//61 46//46
f 62//62 46//46 61//61
f 46//46 62//62 47//47
f 63//63 47//47 62//62
f 47//47 63//63 48//48
f 64//64 48//48 63//63
f 49//49 65//65 50//50
f 66//66 50//50 65//65
f 50//50 66//66 51//51
f 67//67 51//51 66//66
f 51//51 67//67 52//52
f 68//68 52//52 67//67
f 52//52 68//68 53//53
f 69//69 53//53 68//68
f 53//53 69//69 54//54
f 70//70 54//54 69//69
f 54//54 70//70 55//55
f 71//71 55//55 70//70
f 55//55 71//71 56//56
f 72//72 56//56 71//71
f 56//56 72//72 57//57
f 73//73 57//57 72//72
f 57//57 73//73 58//58
f 74//74 58//58 73//73
f 58//58 74//74 59//59
f 75//75 59//59 74//74
f 59//59 75//75 60//60
f 76//76 60//60 75//75
f 60//60 76//76 61//61
f 77//77 61//61 76//76
f 61//61 77//77 62//62
f 78//78 62//62 77//77
f 62//62 78//78 63//63
f 79//79 63//63 78//78
f 63//63 79//79 64//64
f 80//80 64//64 79//79
f 65//65 81//81 66//66
f 82//82 66//66 81//81
f 66//66 82//82 67//67
f 83//83 67//67 82//82
f 67//67 83//83 68//68
f 84//84 68//68 83//83
f 68//68 84//84 69//69
f 85//85 69//69 84//84
f 69//69 85//85 70//70
f 86//86 70//70 85//85
f 70//70 86//86 71//71
f 87//87 71//71 86//86
f 71//71 87//87 72//72
f 88//88 72//72 87//87
f 72//72 88//88 73//73
f 89//89 73//73 88//88
f 73//73 89//89 74//74
f 90//90 74//74 89//89
f 74//74 90//90 75//75
f 91//91 75//75 90//90
f 75//75 91//91 76//76
f 92//92 76//76 91//91
f 76//76 92//92 77//77
f 93//93 77//77 92//92
f 77//77 93//93 78//78
f 94//94 78//78 93//93
f 78//78 94//94 79//79
f 95//95 79//79 94//94
f 79//79 95//95 80//80
f 96//96 80//80 95//95
f 81//81 97//97 82//82
f 98//98 82//82 97//97
f 82//82 98//98 83//83
f 99//99 83//83 98//98
f 83//83 99//99 84//84
f 100//100 84//84 99//99
f 84//84 100//100 85//85
f 101//101 85//85 100//100
f 85//85 101//101 86//86
f 102//102 86//86 101//101
f 86//86 102//102 87//87
f 103//103 87//87 102//102
f 87//87 103//103 88//88
f 104//104 88//88 103//103
f 88//88 104//104 89//89
f 105//105 89//89 104//104
f 89//89 105//105 90//90
f 106//106 90//90 105//105
f 90//90 106//106 91//91
f 107//107 91//91 106//106
f 91//91 107//107 92//92
f 108//108 92//92 107//107
f 92//92 108//108 93//93
f 109//109 93//93 108//108
f 93//93 109//109 94//94
f 110//110 94//94 109//109
f 94//94 110//110 95//95
f 111//111 95//95 110//110
f 95//95 111//111 96//96
f 112//112 96//96 111//111
f 97//97 113//113 98//98
f 114//114 98//98 113//113
f 98//98 114//114 99//99
f 115//115 99//99 114//114
f 99//99 115//115 100//100
f 116//116 100//100 115//115
f 100//100 116//116 101//101
f 117//117 101//101 116//116
f 101//101 117//117 102//102
f 118//118 102//102 117//117
f 102//102 118//118 103//103
f 119//119 103//103 118//118
f 103//103 119//119 104//104
f 120//120 104//104 119//119
f 104//104 120//120 105//105
f 121//121 105//105 120//120
f 105//105 121//121 106//106
f 122//122 106//106 121//121
f 106//106 122//122 107//107
f 123//123 107//107 122//122
f 107//107 123//123 108//108
f 124//124 108//108 123//123
f 108//108 124//124 109//109
f 125//125 109//109 124//124
f 109//109 125//125 110//110
f 126//126 110//110 125//125
f 110//110 126//126 111//111
f 127//127 111//111 126//126
f 111//111 127//127 112//112
f 128//128 112//112 127//127
f 113//113 129//129 114//114
f 130//130 114//114 129//129
f 114//114 130//130 115//115
f 131//131 115//115 130//130
f 115//115 131//131 116//116
f 132//132 116//116 131//131
f 116//116 132//132 117//117
f 133//133 117//117 132//132
f 117//117 133//133 118//118
f 134//134 118//118 133//133
f 118//118 134//134 119//119
f 135//135 119//119 134//134
f 119//119 135//135 120//120
f 136//136 120//120 135//135
f 120//120 136//136 121//121
f 137//137 121//121 136//136
f 121//121 137//137 122//122
f 138//138 122//122 137//137
f 122//122 138//138 123//123
f 139//139 123//123 138//138
f 123//123 139//139 124//124
f 140//140 124//124 139//139
f 124//124 140//140 125//125
f 141//141 125//125 140//140
f 125//125 141//141 126//126
f 142//142 126//126 141//141
f 126//126 142//142 127//127
f 143//143 127//127 142//142
f 127//127 143//143 128//128
f 144//144 128//128 143//143
f 129//129 145//145 130//130
f 146//146 130//130 145//145
f 130//130 146//146 131//131
f 147//147 131//131 146//146
f 131//131 147//147 132//132
f 148//148 132//132 147//147
f 132//132 148//148 133//133
f 149//149 133//133 148//148
f 133//133 149//149 134//134
f 150//150 134//134 149//149
f 134//134 150//150 135//135
f 151//151 135//135 150//150
f 135//135 151//151 136//136
f 152//152 136//136 151//151
f 136//136 152//152 137//137
f 153//153 137//137 152//152
f 137//137 153//153 138//138
f 154//154 138//138 153//153
f 138//138 154//154 139//139
f 155//155 139//139 154//154
f 139//139 155//155 140//140
f 156//156 140//140 155//155
f 140//140 156//156 141//141
f 157//157 141//141 156//156
f 141//141 157//157 142//142
f 158//158 142//142 157//157
f 142//142 158//158 143//143
f 159//159 143//143 158//158
f 143//143 159//159 144//144
f 160//160 144//144 159//159
f 145//145 161//161 146//146
f 162//162 146//146 161//161
f 146//146 162//162 147//147
f 163//163 147//147 162//162
f 147//147 163//163 148//148
f 164//164 148//148 163//163
f 148//148 164//164 149//149
f 165//165 149//149 164//164
f 149//149 165//165 150//150
f 166//166 150//150 165//165
f 150//150 166//166 151//151
f 167//167 151//151 166//166
f 151//151 167//167 152//152
f 168//168 152//152 167//167
f 152//152 168//168 153//153
f 169//169 153//153 168//168
f 153//153 169//169 154//154
f 170//170 154//154 169//169
f 154//154 170//170 155//155
f 171//171 155//155 170//170
f 155//155 171//171 156//156
f 172//172 156//156 171//171
f 156//156 172//172 157//157
f 173//173 157//157 172//172
f 157//157 173//173 158//158
f 174//174 158//158 173//173
f 158//158 174//174 159//159
f 175//175 159//159 174//174
f 159//159 175//175 160//160
f 176//176 160//160 175//175
f 161//161 177//177 162//162
f 178//178 162//162 177//177
f 162//162 178//178 163//163
f 179//179 163//163 178//178
f 163//163 179//179 164//164
f 180//180 164//164 179//179
f 164//164 180//180 165//165
f 181//181 165//165 180//180
f 165//165 181//181 166//166
f 182//182 166//166 181//181
f 166//166 182//182 167//167
f 183//183 167//167 182//182
f 167//167 183//183 168//168
f 184//184 168//168 183//183
f 168//168 184//184 169//169
f 185//185 169//169 184//184
f 169//169 185//185 170//170
f 186//186 170//170 185//185
f 170//170 186//186 171//171
f 187//187 171//171 186//186
f 171//171 187//187 172//172
f 188//188 172//172 187//187
f 172//172 188//188 173//173
f 189//189 173//173 188//188
f 173//173 189//189 174//174
f 190//190 174//174 189//189
f 174//174 190//190 175//175
f 191//191 175//175 190//190
f 175//175 191//191 176//176
f 192//192 176//176 191//191
f 177//177 193//193 178//178
f 194//194 178//178 193//193
f 178//178 194//194 179//179
f 195//195 179//179 194//194
f 179//179 195//195 180//180
f 196//196 180//180 195//195
f 180//180 196//196 181//181
f 197//197 181//181 196//196
f 181//181 197//197 182//182
f 198//198 182//182 197//197
f 182//182 198//198 183//183
f 199//199 183//183 198//198
f 183//183 199//199 184//184
f 200//200 184//184 199//199
f 184//184 200//200 185//185
f 201//201 185//185 200//200
f 185//185 201//201 186//186
f 202//202 186//186 201//201
f 186//186 202//202 187//187
f 203//203 187//187 202//202
f 187//187 203//203 188//188
f 204//204 188//188 203//203
f 188//188 204//204 189//189
f 205//205 189//189 204//204
f 189//189 205//205 190//190
f 206//206 190//190 205//205
f 190//190 206//206 191//191
f 207//207 191//191 206//206
f 191//191 207//207 192//192
f 208//208 192//192 207//207
f 193//193 209//209 194//194
f 210//210 194//194 209//209
f 194//194 210//210 195//195
f 211//211 195//195 210//210
f 195//195 211//211 196//196
f 212//212 196//196 211//211
f 196//196 212//212 197//197
f 213//213 197//197 212//212
f 197//197 213//213 198//198
f 214//214 198//198 213//213
f 198//198 214//214 199//199
f 215//215 199//199 214//214
f 199//199 215//215 200//200
f 216//216 200//200 215//215
f 200//200 216//216 201//201
f 217//217 201//201 216//216
f 201//201 217//217 202//202
f 218//218 202//202 217//217
f 202//202 218//218 203//203
f 219//219 203//203 218//218
f 203//203 219//219 204//204
f 220//220 204//204 219//219
f 204//204 220//220 205//205
f 221//221 205//205 220//220
f 205//205 221//221 206//206
f 222//222 206//206 221//221
f 206//206 222//222 207//207
f 223//223 207//207 222//222
f 207//207 223//223 208//208
f 224//224 208//208 223//223
f 209//209 225//225 210//210
f 226//226 210//210 225//225
f 210//210 226//226 211//211
f 227//227 211//211 226//226
f 211//211 227//227 212//212
f 228//228 212//212 227//227
f 212//212 228//228 213//213
f 229//229 213//213 228//228
f 213//213 229//229 214//214
f 230//230 214//214 229//229
f 214//214 230//230 215//215
f 231//231 215//215 230//230
f 215//215 231//231 216//216
f 232//232 216//216 231//231
f 216//216 232//232 217//217
f 233//233 217//217 232//232
f 217//217 233//233 218//218
f 234//234 218//218 233//233
f 218//218 234//234 219//219
f 235//235 219//219 234//234
f 219//219 235//235 220//220
f 236//236 220//220 235//235
f 220//220 236//236 221//221
f 237//237 221//221 236//236
f 221//221 237//237 222//222
f 238//238 222//222 237//237
f 222//222 238//238 223//223
f 239//239 223//223 238//238
f 223//223 239//239 224//224
f 240//240 224//224 239//239
f 225//225 241//241 226//226
f 242//242 226//226 241//241
f 226//226 242//242 227//227
f 243//243 227//227 242//242
f 227//227 243//243 228//228
f 244//244 228//228 243//243
f 228//228 244//244 229//229
f 245//245 229//229 244//244
f 229//229 245//245 230//230
f 246//246 230//230 245//245
f 230//230 246//246 231//231
f 247//247 231//231 246//246
f 231//231 247//247 232//232
f 248//248 232//232 247//247
f 232//232 248//248 233//233
f 249//249 233//233 248//248
f 233//233 249//249 234//234
f 250//250 234//234 249//249
f 234//234 250//250 235//235
f 251//251 235//235 250//250
f 235//235 251//251 236//236
f 252//252 236//236 251//251
f 236//236 252//252 237//237
f 253//253 237//237 252//252
f 237//237 253//253 238//238
f 254//254 238//238 253//253
f 238//238 254//254 239//239
f 255//255 239//239 254//254
f 239//239 255//255 240//240
f 256//256 240//240 255//255
